<svg xmlns="http://www.w3.org/2000/svg" width="16" height="16" viewBox="0 0 16 16">
    <g fill="none" fill-rule="evenodd">
        <path d="M0 0H16V16H0z"/>
        <path fill="#90A3A9" d="M8 3.333c4.462 0 6.555 3.744 7 4.667l-.09.175-.121.221c-.735 1.292-2.856 4.27-6.789 4.27-4.462 0-6.555-3.743-7-4.666l.09-.175.121-.221C1.946 6.312 4.067 3.334 8 3.334zm0 .955c-1.712 0-3.145.635-4.345 1.743-.615.57-1.106 1.199-1.473 1.802l-.103.172.1.171c.321.537.743 1.096 1.263 1.611l.2.192C4.831 11.08 6.268 11.712 8 11.712c1.712 0 3.145-.635 4.345-1.743.615-.57 1.106-1.199 1.473-1.802l.102-.173-.099-.17c-.321-.537-.743-1.096-1.263-1.611l-.2-.192C11.169 4.92 9.732 4.288 8 4.288zm0 1.379c1.288 0 2.333 1.045 2.333 2.333 0 1.288-1.045 2.333-2.333 2.333-1.288 0-2.333-1.045-2.333-2.333 0-1.288 1.045-2.333 2.333-2.333z"/>
    </g>
</svg>
